<svg xmlns="http://www.w3.org/2000/svg" width="45" height="45" viewBox="0 0 45 45"><g transform="translate(-236 -236)"><path d="M281,259.626v-2.252l-2.587-.858q-.062-.633-.164-1.254l2.275-1.5-.583-2.175-2.715-.159q-.225-.6-.485-1.174l1.806-2.03-1.126-1.95-2.662.549q-.371-.517-.773-1.009l1.219-2.429-1.592-1.592-2.423,1.216q-.493-.406-1.013-.779l.547-2.653-1.95-1.126-2.016,1.793q-.585-.266-1.191-.5l-.158-2.691-2.175-.583-1.479,2.247c-.424-.07-.852-.128-1.284-.171L259.626,236h-2.252l-.844,2.544q-.653.062-1.294.167l-1.472-2.236-2.175.583-.156,2.662q-.619.232-1.218.5l-1.99-1.77-1.95,1.126.537,2.605q-.538.385-1.049.8l-2.377-1.193-1.592,1.592,1.19,2.371q-.422.512-.81,1.053l-2.6-.535-1.126,1.95,1.756,1.975q-.276.606-.512,1.234l-2.638.154-.583,2.175,2.208,1.453q-.108.655-.174,1.324l-2.509.832v2.252l2.509.832q.065.669.174,1.324l-2.208,1.453.583,2.175,2.638.154q.236.627.512,1.234l-1.756,1.975,1.126,1.95,2.6-.535q.388.54.81,1.053l-1.19,2.371,1.592,1.592,2.377-1.193q.511.419,1.049.8l-.537,2.605,1.95,1.126,1.99-1.77q.6.27,1.218.5l.156,2.662,2.175.583,1.472-2.236q.641.1,1.294.167l.844,2.545h2.252l.846-2.551q.649-.065,1.284-.171l1.479,2.247,2.175-.583.158-2.691q.6-.229,1.191-.5l2.016,1.793,1.95-1.126-.547-2.653q.519-.374,1.013-.779l2.423,1.216,1.592-1.592-1.219-2.428q.4-.492.773-1.009l2.662.549,1.126-1.95-1.806-2.03q.261-.577.485-1.174l2.715-.159.583-2.175-2.275-1.5q.1-.621.164-1.254Zm-21-17.759a16.687,16.687,0,0,1,12.123,7.028l-10.244,5.915A5,5,0,0,0,260,253.723Zm-9.947,2.2a16.6,16.6,0,0,1,6.939-2.2v11.862a5,5,0,0,0-1.879,1.086l-4.209-2.43-6.088-3.515A16.788,16.788,0,0,1,250.057,244.064Zm-6.748,21.469a16.705,16.705,0,0,1,0-14.067l10.3,5.949a4.994,4.994,0,0,0,0,2.17Zm13.687,9.6a16.686,16.686,0,0,1-12.177-7l10.3-5.945A5,5,0,0,0,257,263.277Zm1.5-14.033a2.605,2.605,0,1,1,2.605-2.605A2.605,2.605,0,0,1,258.5,261.105Zm1.5,14.027V263.277a5,5,0,0,0,1.879-1.086l10.244,5.915A16.687,16.687,0,0,1,260,275.133Zm13.627-9.633-10.244-5.914a4.995,4.995,0,0,0,0-2.17l10.244-5.914a16.7,16.7,0,0,1,0,14Z" transform="translate(0 0)" fill="#4e6072"/><path d="M317.89,299.808a18.083,18.083,0,1,0,18.083,18.083A18.083,18.083,0,0,0,317.89,299.808Zm-8.443,3.647a16.6,16.6,0,0,1,6.939-2.2v11.862a5,5,0,0,0-1.879,1.086l-4.209-2.43-6.088-3.515A16.789,16.789,0,0,1,309.446,303.455Zm-8.3,14.436a16.636,16.636,0,0,1,1.553-7.034l10.3,5.949a4.995,4.995,0,0,0,0,2.17l-10.3,5.948A16.636,16.636,0,0,1,301.146,317.891Zm15.24,16.638a16.686,16.686,0,0,1-12.177-7l10.3-5.945a5,5,0,0,0,1.879,1.086Zm-1.1-16.638a2.605,2.605,0,1,1,2.605,2.605A2.605,2.605,0,0,1,315.284,317.891Zm4.11,16.633V322.667a5,5,0,0,0,1.879-1.086l10.244,5.915A16.687,16.687,0,0,1,319.394,334.523Zm15.164-16.633a16.637,16.637,0,0,1-1.537,7l-10.244-5.914a5,5,0,0,0,0-2.17l10.244-5.914A16.637,16.637,0,0,1,334.558,317.891Zm-13.285-3.69a5,5,0,0,0-1.879-1.086V301.258a16.687,16.687,0,0,1,12.123,7.028Z" transform="translate(-59.39 -59.391)" fill="#738692"/><path d="M352.258,484.595,348.8,482.6q-1.315,1.036-2.662,1.937l4.613,2.663a16.687,16.687,0,0,1-12.124,7.028V488.6q-1.518.65-3.008,1.173v4.46a16.6,16.6,0,0,1-7.352-2.452,55.11,55.11,0,0,1-7.8.982l1.538,1.538,2.377-1.193q.511.419,1.049.8l-.537,2.605,1.95,1.126,1.99-1.77q.6.27,1.218.5l.156,2.662,2.175.583,1.472-2.236q.641.1,1.294.167L336,500.1h2.252l.846-2.551q.649-.065,1.284-.171l1.479,2.247,2.175-.583.158-2.691q.6-.229,1.191-.5l2.016,1.793,1.95-1.126-.547-2.653q.519-.374,1.012-.779l2.423,1.216,1.592-1.592-1.219-2.429q.4-.492.773-1.009l2.662.549,1.126-1.95-1.806-2.03q.261-.577.485-1.174l2.714-.159.583-2.175-2.275-1.5q.1-.621.164-1.254l2.587-.858V476.47l-2.587-.858q-.062-.633-.164-1.254l2.275-1.5-.393-1.468a43.539,43.539,0,0,1-4.968,6.582A16.63,16.63,0,0,1,352.258,484.595Z" transform="translate(-78.627 -219.096)" fill="#435463"/><path d="M431.442,551.912l-3.455-1.995q-1.315,1.036-2.662,1.937l4.613,2.663a16.687,16.687,0,0,1-12.123,7.028v-5.627q-1.518.649-3.008,1.173v4.46a16.6,16.6,0,0,1-7.352-2.452q-.98.195-1.906.345a18.082,18.082,0,0,0,28.845-14.531c0-.4-.018-.8-.044-1.2q-.676.814-1.375,1.575A16.632,16.632,0,0,1,431.442,551.912Z" transform="translate(-157.811 -286.413)" fill="#546a73"/><path d="M507.383,503.395a3.988,3.988,0,1,0,3.988,3.988A3.988,3.988,0,0,0,507.383,503.395Zm0,7.434a3.446,3.446,0,1,1,3.446-3.446A3.446,3.446,0,0,1,507.383,510.829Z" transform="translate(-248.883 -248.883)" fill="#546a73"/></g></svg>