<svg xmlns="http://www.w3.org/2000/svg" width="49.744" height="56.362" viewBox="0 0 49.744 56.362"><ellipse cx="24.872" cy="21.79" rx="24.872" ry="21.79" transform="translate(0 12.781)" fill="#ed1c24"/><path d="M356.443,51.707l1.347,1.479,2.086-.68a26.644,26.644,0,0,1,3.988,1.562,3.135,3.135,0,0,0-1.921,1.855,12.413,12.413,0,0,1,6.405.944,23.836,23.836,0,0,1,1.805,1.565c-3.227-.795-6.018.157-8.686,1.6a12.1,12.1,0,0,1,7.085,5.542c-2.141-2.512-6.147-3.593-11.078-3.872-2.836,1.6-2.729,4.172-2.2,6.889a20.358,20.358,0,0,1-3.883-7.243,13.576,13.576,0,0,0-10.711,4.331,20.508,20.508,0,0,1,6.454-6.535c-3.677-1.873-7.983-1.2-12.5-.281a19.624,19.624,0,0,1,12.6-2.761,7.576,7.576,0,0,0-3.671-3.558,27.486,27.486,0,0,1,3.171-.77l5.286,1.77.347-2.212A28.323,28.323,0,0,1,356.443,51.707Z" transform="translate(-326.907 -38.544)" fill="#c9252c" fill-rule="evenodd"/><path d="M334.3,79.545c2.321.231,3.584,2.926,2.816,6.019s-3.27,5.414-5.593,5.184-3.584-2.926-2.817-6.019S331.981,79.314,334.3,79.545Z" transform="translate(-323.292 -55.121)" fill="#f58466" fill-rule="evenodd"/><path d="M358.7,55.988c8.631,3.419,14.639,11.029,14.639,19.866,0,12.032-11.137,21.79-24.872,21.79A26.249,26.249,0,0,1,329,89.416a26.394,26.394,0,0,0,14.385,4.158c13.354,0,24.184-9.488,24.184-21.187A20.261,20.261,0,0,0,358.7,55.988Z" transform="translate(-323.597 -41.283)" fill="#c9252c" fill-rule="evenodd"/><path d="M351.638,42.857l4.406,4.321,9.538-2.782L359.8,49.389l10.964,1.444-11.394,1.875,6.215,4.562-9.825-3.213-1.99,5.566-3.51-5.853-9.682,3.5,5.929-5.28L335.4,50.833l11.108-1.3L340.575,44.4l10.256,3.069Z" transform="translate(-327.355 -33.564)" fill="#72bf44" fill-rule="evenodd"/><path d="M372.484,61.423c2.306,0,4.187-.756,4.187-1.684s-1.881-1.684-4.187-1.684-4.187.757-4.187,1.684S370.178,61.423,372.484,61.423Z" transform="translate(-346.696 -42.498)" fill="#407928" fill-rule="evenodd"/><path d="M385.063,23.438c-5.355,1.753-7.572,11.3-7.461,14.247l-1.721-.018c-.125-3.6.826-13.191,7.89-17.359Z" transform="translate(-351.148 -20.308)" fill="#72bf44" fill-rule="evenodd"/><path d="M385.058,23.438c-5.355,1.753-7.572,11.3-7.46,14.247l-1.721-.018,0-.114a.763.763,0,0,0,.752-.638c.2-2.631,2.426-11.436,7.343-13.774l-1-2.318c.258-.179.524-.352.8-.515Z" transform="translate(-351.149 -20.308)" fill="#407928" fill-rule="evenodd"/><path d="M384.514,24.643c-3.78,1.429-5.775,7.093-5.864,9.215l-.423.038a15.84,15.84,0,0,1,5.737-10.18Z" transform="translate(-352.533 -22.312)" fill="#a9d377" fill-rule="evenodd"/></svg>